{
	"asset":{
		"generator":"Khronos glTF Blender I/O v3.5.30",
		"version":"2.0"
	},
	"scene":0,
	"scenes":[
		{
			"name":"Scene",
			"nodes":[
				0
			]
		}
	],
	"nodes":[
		{
			"mesh":0,
			"name":"Cube",
			"translation":[
				-0.025287389755249023,
				3.1417808532714844,
				4.788363933563232
			]
		}
	],
	"materials":[
		{
			"doubleSided":true,
			"name":"Material.011",
			"pbrMetallicRoughness":{
				"baseColorFactor":[
					0.1679011881351471,
					0.8888885378837585,
					0.5428144335746765,
					1
				],
				"metallicFactor":0,
				"roughnessFactor":0.5
			}
		},
		{
			"doubleSided":true,
			"name":"Material.012",
			"pbrMetallicRoughness":{
				"baseColorFactor":[
					0.07518518716096878,
					0.9666663408279419,
					0.5387553572654724,
					1
				],
				"metallicFactor":0,
				"roughnessFactor":0.5
			}
		},
		{
			"doubleSided":true,
			"name":"Material.013",
			"pbrMetallicRoughness":{
				"baseColorFactor":[
					0.060740694403648376,
					0.4555552303791046,
					0.2660442590713501,
					1
				],
				"metallicFactor":0,
				"roughnessFactor":0.5
			}
		},
		{
			"doubleSided":true,
			"name":"Material.014",
			"pbrMetallicRoughness":{
				"baseColorFactor":[
					0.09148141741752625,
					0.43333297967910767,
					0.2692442238330841,
					1
				],
				"metallicFactor":0,
				"roughnessFactor":0.5
			}
		},
		{
			"doubleSided":true,
			"name":"Material.015",
			"pbrMetallicRoughness":{
				"baseColorFactor":[
					0.08123450726270676,
					0.5222218632698059,
					0.31054791808128357,
					1
				],
				"metallicFactor":0,
				"roughnessFactor":0.5
			}
		},
		{
			"doubleSided":true,
			"name":"Material.017",
			"pbrMetallicRoughness":{
				"baseColorFactor":[
					0.06901230663061142,
					0.4777774512767792,
					0.281570166349411,
					1
				],
				"metallicFactor":0,
				"roughnessFactor":0.5
			}
		},
		{
			"doubleSided":true,
			"name":"Material.018",
			"pbrMetallicRoughness":{
				"baseColorFactor":[
					0.12740735709667206,
					0.9555552005767822,
					0.5580441951751709,
					1
				],
				"metallicFactor":0,
				"roughnessFactor":0.5
			}
		},
		{
			"doubleSided":true,
			"name":"Material.002",
			"pbrMetallicRoughness":{
				"baseColorFactor":[
					0.970590353012085,
					0.9490216970443726,
					0.9490216970443726,
					1
				],
				"metallicFactor":0,
				"roughnessFactor":0.5
			}
		},
		{
			"doubleSided":true,
			"name":"Material.010",
			"pbrMetallicRoughness":{
				"baseColorFactor":[
					0.08603271842002869,
					0.06470602005720139,
					0.970590353012085,
					1
				],
				"metallicFactor":0,
				"roughnessFactor":0.5
			}
		}
	],
	"meshes":[
		{
			"name":"Cube.002",
			"primitives":[
				{
					"attributes":{
						"POSITION":0,
						"NORMAL":1
					},
					"indices":2,
					"material":0
				},
				{
					"attributes":{
						"POSITION":3,
						"NORMAL":4
					},
					"indices":5,
					"material":1
				},
				{
					"attributes":{
						"POSITION":6,
						"NORMAL":7
					},
					"indices":8,
					"material":2
				},
				{
					"attributes":{
						"POSITION":9,
						"NORMAL":10
					},
					"indices":11,
					"material":3
				},
				{
					"attributes":{
						"POSITION":12,
						"NORMAL":13
					},
					"indices":14,
					"material":4
				},
				{
					"attributes":{
						"POSITION":15,
						"NORMAL":16
					},
					"indices":17,
					"material":5
				},
				{
					"attributes":{
						"POSITION":18,
						"NORMAL":19
					},
					"indices":20,
					"material":6
				},
				{
					"attributes":{
						"POSITION":21,
						"NORMAL":22
					},
					"indices":23,
					"material":7
				},
				{
					"attributes":{
						"POSITION":24,
						"NORMAL":25
					},
					"indices":26,
					"material":8
				}
			]
		}
	],
	"accessors":[
		{
			"bufferView":0,
			"componentType":5126,
			"count":1277,
			"max":[
				1.9886137247085571,
				0.437582790851593,
				-1.6002998352050781
			],
			"min":[
				-1.9886137247085571,
				-3.1991965770721436,
				-9.267973899841309
			],
			"type":"VEC3"
		},
		{
			"bufferView":1,
			"componentType":5126,
			"count":1277,
			"type":"VEC3"
		},
		{
			"bufferView":2,
			"componentType":5123,
			"count":6096,
			"type":"SCALAR"
		},
		{
			"bufferView":3,
			"componentType":5126,
			"count":7885,
			"max":[
				2.4224460124969482,
				2.914965867996216,
				1.6528387069702148
			],
			"min":[
				-2.422445774078369,
				-3.222132682800293,
				-8.852319717407227
			],
			"type":"VEC3"
		},
		{
			"bufferView":4,
			"componentType":5126,
			"count":7885,
			"type":"VEC3"
		},
		{
			"bufferView":5,
			"componentType":5123,
			"count":45840,
			"type":"SCALAR"
		},
		{
			"bufferView":6,
			"componentType":5126,
			"count":771,
			"max":[
				2.199803590774536,
				-0.012431284412741661,
				-1.4979021549224854
			],
			"min":[
				-2.1998038291931152,
				-1.4844461679458618,
				-9.32214641571045
			],
			"type":"VEC3"
		},
		{
			"bufferView":7,
			"componentType":5126,
			"count":771,
			"type":"VEC3"
		},
		{
			"bufferView":8,
			"componentType":5123,
			"count":3840,
			"type":"SCALAR"
		},
		{
			"bufferView":9,
			"componentType":5126,
			"count":2354,
			"max":[
				1.8600009679794312,
				1.099815845489502,
				-1.5965251922607422
			],
			"min":[
				-1.8600008487701416,
				-0.7091389894485474,
				-8.449324607849121
			],
			"type":"VEC3"
		},
		{
			"bufferView":10,
			"componentType":5126,
			"count":2354,
			"type":"VEC3"
		},
		{
			"bufferView":11,
			"componentType":5123,
			"count":12432,
			"type":"SCALAR"
		},
		{
			"bufferView":12,
			"componentType":5126,
			"count":784,
			"max":[
				1.782353162765503,
				0.9888631701469421,
				-2.3373806476593018
			],
			"min":[
				-1.782353162765503,
				-0.654371440410614,
				-8.448341369628906
			],
			"type":"VEC3"
		},
		{
			"bufferView":13,
			"componentType":5126,
			"count":784,
			"type":"VEC3"
		},
		{
			"bufferView":14,
			"componentType":5123,
			"count":3264,
			"type":"SCALAR"
		},
		{
			"bufferView":15,
			"componentType":5126,
			"count":139,
			"max":[
				0.4476424753665924,
				1.099815845489502,
				-2.9397261142730713
			],
			"min":[
				-0.4476424753665924,
				0.5843808054924011,
				-6.424029350280762
			],
			"type":"VEC3"
		},
		{
			"bufferView":16,
			"componentType":5126,
			"count":139,
			"type":"VEC3"
		},
		{
			"bufferView":17,
			"componentType":5123,
			"count":576,
			"type":"SCALAR"
		},
		{
			"bufferView":18,
			"componentType":5126,
			"count":50,
			"max":[
				0.6038675308227539,
				-0.6414934396743774,
				-1.986627221107483
			],
			"min":[
				-0.6038675308227539,
				-1.2366622686386108,
				-2.136324405670166
			],
			"type":"VEC3"
		},
		{
			"bufferView":19,
			"componentType":5126,
			"count":50,
			"type":"VEC3"
		},
		{
			"bufferView":20,
			"componentType":5123,
			"count":192,
			"type":"SCALAR"
		},
		{
			"bufferView":21,
			"componentType":5126,
			"count":57092,
			"max":[
				1.0434330701828003,
				2.607677459716797,
				0.8409448862075806
			],
			"min":[
				-1.0434330701828003,
				1.5708338022232056,
				-0.1635410189628601
			],
			"type":"VEC3"
		},
		{
			"bufferView":22,
			"componentType":5126,
			"count":57092,
			"type":"VEC3"
		},
		{
			"bufferView":23,
			"componentType":5123,
			"count":340992,
			"type":"SCALAR"
		},
		{
			"bufferView":24,
			"componentType":5126,
			"count":7940,
			"max":[
				0.7234029769897461,
				2.287647247314453,
				0.8811889886856079
			],
			"min":[
				-0.7234029173851013,
				1.8908640146255493,
				0.840944766998291
			],
			"type":"VEC3"
		},
		{
			"bufferView":25,
			"componentType":5126,
			"count":7940,
			"type":"VEC3"
		},
		{
			"bufferView":26,
			"componentType":5123,
			"count":46080,
			"type":"SCALAR"
		}
	],
	"bufferViews":[
		{
			"buffer":0,
			"byteLength":15324,
			"byteOffset":0,
			"target":34962
		},
		{
			"buffer":0,
			"byteLength":15324,
			"byteOffset":15324,
			"target":34962
		},
		{
			"buffer":0,
			"byteLength":12192,
			"byteOffset":30648,
			"target":34963
		},
		{
			"buffer":0,
			"byteLength":94620,
			"byteOffset":42840,
			"target":34962
		},
		{
			"buffer":0,
			"byteLength":94620,
			"byteOffset":137460,
			"target":34962
		},
		{
			"buffer":0,
			"byteLength":91680,
			"byteOffset":232080,
			"target":34963
		},
		{
			"buffer":0,
			"byteLength":9252,
			"byteOffset":323760,
			"target":34962
		},
		{
			"buffer":0,
			"byteLength":9252,
			"byteOffset":333012,
			"target":34962
		},
		{
			"buffer":0,
			"byteLength":7680,
			"byteOffset":342264,
			"target":34963
		},
		{
			"buffer":0,
			"byteLength":28248,
			"byteOffset":349944,
			"target":34962
		},
		{
			"buffer":0,
			"byteLength":28248,
			"byteOffset":378192,
			"target":34962
		},
		{
			"buffer":0,
			"byteLength":24864,
			"byteOffset":406440,
			"target":34963
		},
		{
			"buffer":0,
			"byteLength":9408,
			"byteOffset":431304,
			"target":34962
		},
		{
			"buffer":0,
			"byteLength":9408,
			"byteOffset":440712,
			"target":34962
		},
		{
			"buffer":0,
			"byteLength":6528,
			"byteOffset":450120,
			"target":34963
		},
		{
			"buffer":0,
			"byteLength":1668,
			"byteOffset":456648,
			"target":34962
		},
		{
			"buffer":0,
			"byteLength":1668,
			"byteOffset":458316,
			"target":34962
		},
		{
			"buffer":0,
			"byteLength":1152,
			"byteOffset":459984,
			"target":34963
		},
		{
			"buffer":0,
			"byteLength":600,
			"byteOffset":461136,
			"target":34962
		},
		{
			"buffer":0,
			"byteLength":600,
			"byteOffset":461736,
			"target":34962
		},
		{
			"buffer":0,
			"byteLength":384,
			"byteOffset":462336,
			"target":34963
		},
		{
			"buffer":0,
			"byteLength":685104,
			"byteOffset":462720,
			"target":34962
		},
		{
			"buffer":0,
			"byteLength":685104,
			"byteOffset":1147824,
			"target":34962
		},
		{
			"buffer":0,
			"byteLength":681984,
			"byteOffset":1832928,
			"target":34963
		},
		{
			"buffer":0,
			"byteLength":95280,
			"byteOffset":2514912,
			"target":34962
		},
		{
			"buffer":0,
			"byteLength":95280,
			"byteOffset":2610192,
			"target":34962
		},
		{
			"buffer":0,
			"byteLength":92160,
			"byteOffset":2705472,
			"target":34963
		}
	],
	"buffers":[
		{
			"byteLength":2797632,
			"uri":"data:application/octet-stream;base64,"
		}
	]
}
